<svg xmlns="http://www.w3.org/2000/svg" style="display: none;">
  <symbol id="home" viewBox="0 0 24 24">
    <path stroke="none" d="M0 0h24v24H0z" fill="none"/><path d="M5 12l-2 0l9 -9l9 9l-2 0" /><path d="M5 12v7a2 2 0 0 0 2 2h10a2 2 0 0 0 2 -2v-7" /><path d="M9 21v-6a2 2 0 0 1 2 -2h2a2 2 0 0 1 2 2v6" />
  </symbol>
  
  <symbol id="grid" viewBox="0 0 24 24">
    <path stroke="none" d="M0 0h24v24H0z" fill="none"/><path d="M4 4m0 1a1 1 0 0 1 1 -1h4a1 1 0 0 1 1 1v4a1 1 0 0 1 -1 1h-4a1 1 0 0 1 -1 -1z" /><path d="M14 4m0 1a1 1 0 0 1 1 -1h4a1 1 0 0 1 1 1v4a1 1 0 0 1 -1 1h-4a1 1 0 0 1 -1 -1z" /><path d="M4 14m0 1a1 1 0 0 1 1 -1h4a1 1 0 0 1 1 1v4a1 1 0 0 1 -1 1h-4a1 1 0 0 1 -1 -1z" /><path d="M14 14m0 1a1 1 0 0 1 1 -1h4a1 1 0 0 1 1 1v4a1 1 0 0 1 -1 1h-4a1 1 0 0 1 -1 -1z" />
  </symbol>
  
  <symbol id="search" viewBox="0 0 24 24">
    <path stroke="none" d="M0 0h24v24H0z" fill="none"/><path d="M10 10m-7 0a7 7 0 1 0 14 0a7 7 0 1 0 -14 0" /><path d="M21 21l-6 -6" />
  </symbol>

  <symbol id="user" viewBox="0 0 24 24">
    <path stroke="none" d="M0 0h24v24H0z" fill="none"/><path d="M8 7a4 4 0 1 0 8 0a4 4 0 0 0 -8 0" /><path d="M6 21v-2a4 4 0 0 1 4 -4h4a4 4 0 0 1 4 4v2" />
  </symbol>

  <symbol id="sliders" viewBox="0 0 24 24">
    <path stroke="none" d="M0 0h24v24H0z" fill="none"/><path d="M4 21v-7" /><path d="M4 10v-3" /><path d="M12 21v-9" /><path d="M12 8v-3" /><path d="M20 21v-5" /><path d="M20 12v-3" /><path d="M1 14h6" /><path d="M9 8h6" /><path d="M17 16h6" />
  </symbol>

  <symbol id="book" viewBox="0 0 24 24">
    <path stroke="none" d="M0 0h24v24H0z" fill="none"/><path d="M3 19a9 9 0 0 1 9 0a9 9 0 0 1 9 0" /><path d="M3 6a9 9 0 0 1 9 0a9 9 0 0 1 9 0" /><path d="M3 6l0 13" /><path d="M12 6l0 13" /><path d="M21 6l0 13" />
  </symbol>

  <symbol id="archive" viewBox="0 0 24 24">
    <path stroke="none" d="M0 0h24v24H0z" fill="none"/><path d="M3 4m0 2a2 2 0 0 1 2 -2h14a2 2 0 0 1 2 2v2a2 2 0 0 1 -2 2h-14a2 2 0 0 1 -2 -2z" /><path d="M5 8v10a2 2 0 0 0 2 2h10a2 2 0 0 0 2 -2v-10" /><path d="M10 12l4 0" />
  </symbol>

  <symbol id="mic" viewBox="0 0 24 24">
    <path stroke="none" d="M0 0h24v24H0z" fill="none"/><path d="M8 11a4 4 0 1 0 8 0v-7a4 4 0 0 0 -8 0v7z" /><path d="M6 11a6 6 0 0 0 12 0" /><path d="M8 4c0 1.5.5 3 2 4" /><path d="M12 11v10" /><path d="M8 21h8" />
  </symbol>

  <symbol id="git-branch" viewBox="0 0 24 24">
      <path stroke="none" d="M0 0h24v24H0z" fill="none" /><path d="M3 7a2 2 0 0 1 2 -2h6a2 2 0 0 1 2 2v8a2 2 0 0 1 -2 2h-2" /><path d="M7 11.5l-2 -2.5l2 -2.5" /><path d="M13 13.5l4 -4l-4 -4" /><path d="M15 15a2 2 0 0 0 2 2h2a2 2 0 0 0 2 -2" /><path d="M7 7h8.5" />
  </symbol>

  <symbol id="settings" viewBox="0 0 24 24">
    <path stroke="none" d="M0 0h24v24H0z" fill="none"/><path d="M10.325 4.317c.426 -1.756 2.924 -1.756 3.35 0a1.724 1.724 0 0 0 2.573 1.066c1.543 -.94 3.31 .826 2.37 2.37a1.724 1.724 0 0 0 1.065 2.572c1.756 .426 1.756 2.924 0 3.35a1.724 1.724 0 0 0 -1.066 2.573c.94 1.543 -.826 3.31 -2.37 2.37a1.724 1.724 0 0 0 -2.572 1.065c-.426 1.756 -2.924 1.756 -3.35 0a1.724 1.724 0 0 0 -2.573 -1.066c-1.543 .94 -3.31 -.826 -2.37 -2.37a1.724 1.724 0 0 0 -1.065 -2.572c-1.756 -.426 -1.756 -2.924 0 -3.35a1.724 1.724 0 0 0 1.066 -2.573c-.94 -1.543 .826 -3.31 2.37 -2.37c1 .608 2.296 .07 2.572 -1.065z" /><path d="M9 12a3 3 0 1 0 6 0a3 3 0 0 0 -6 0" />
  </symbol>

  <symbol id="feather" viewBox="0 0 24 24">
    <path stroke="none" d="M0 0h24v24H0z" fill="none"/><path d="M4 20l10 -10m0 -5v5h5m-9 -1v5h5m-9 -1v5h5m-5 -9l4 -4l4 4" /><path d="M19 10c.638 -.636 1 -1.515 1 -2.486a3.515 3.515 0 0 0 -3.517 -3.514c-.97 0 -1.847 .367 -2.483 1" />
  </symbol>
  
  <symbol id="trending-up" viewBox="0 0 24 24">
    <path stroke="none" d="M0 0h24v24H0z" fill="none"/><path d="M3 17l6 -6l4 4l8 -8" /><path d="M14 7l7 0l0 7" />
  </symbol>
  
  <symbol id="book-open" viewBox="0 0 24 24">
    <path stroke="none" d="M0 0h24v24H0z" fill="none"/><path d="M3 19a9 9 0 0 1 9 0a9 9 0 0 1 9 0" /><path d="M3 6a9 9 0 0 1 9 0a9 9 0 0 1 9 0" /><path d="M3 6l0 13" /><path d="M12 6l0 13" /><path d="M21 6l0 13" /><path d="M3.262 15.658c.948 .342 2.028 .594 3.238 .742" /><path d="M20.738 15.658c-.948 .342 -2.028 .594 -3.238 .742" />
  </symbol>
  
  <symbol id="trash-2" viewBox="0 0 24 24">
    <path stroke="none" d="M0 0h24v24H0z" fill="none"/><path d="M4 7l16 0" /><path d="M10 11l0 6" /><path d="M14 11l0 6" /><path d="M5 7l1 12a2 2 0 0 0 2 2h8a2 2 0 0 0 2 -2l1 -12" /><path d="M9 7v-3a1 1 0 0 1 1 -1h4a1 1 0 0 1 1 1v3" />
  </symbol>

  <symbol id="zap" viewBox="0 0 24 24">
    <path stroke="none" d="M0 0h24v24H0z" fill="none"/><path d="M13 3l-7 11h6l-1 7l7 -11h-6l1 -7z" />
  </symbol>

  <symbol id="check-circle" viewBox="0 0 24 24">
    <path stroke="none" d="M0 0h24v24H0z" fill="none"/><path d="M12 12m-9 0a9 9 0 1 0 18 0a9 9 0 1 0 -18 0" /><path d="M9 12l2 2l4 -4" />
  </symbol>

  <symbol id="target" viewBox="0 0 24 24">
    <path stroke="none" d="M0 0h24v24H0z" fill="none"/><path d="M12 12m-1 0a1 1 0 1 0 2 0a1 1 0 1 0 -2 0" /><path d="M12 12m-5 0a5 5 0 1 0 10 0a5 5 0 1 0 -10 0" /><path d="M12 12m-9 0a9 9 0 1 0 18 0a9 9 0 1 0 -18 0" />
  </symbol>

  <symbol id="lock" viewBox="0 0 24 24">
    <path stroke="none" d="M0 0h24v24H0z" fill="none"/><path d="M5 13a2 2 0 0 1 2 -2h10a2 2 0 0 1 2 2v6a2 2 0 0 1 -2 2h-10a2 2 0 0 1 -2 -2v-6z" /><path d="M11 16a1 1 0 1 0 2 0a1 1 0 0 0 -2 0" /><path d="M8 11v-4a4 4 0 1 1 8 0v4" />
  </symbol>
  
  <symbol id="award" viewBox="0 0 24 24">
    <path stroke="none" d="M0 0h24v24H0z" fill="none"/><path d="M12 9m-6 0a6 6 0 1 0 12 0a6 6 0 1 0 -12 0" /><path d="M12 15l3.4 5.89l1.598 -3.233l3.598 .232l-3.4 -5.889" /><path d="M6.802 12l-3.4 5.89l3.598 -.233l1.598 3.232l3.4 -5.889" />
  </symbol>
  
  <symbol id="star" viewBox="0 0 24 24">
    <path stroke="none" d="M0 0h24v24H0z" fill="none"/><path d="M12 17.75l-6.172 3.245l1.179 -6.873l-5 -4.867l6.9 -1l3.086 -6.253l3.086 6.253l6.9 1l-5 4.867l1.179 6.873z" />
  </symbol>
  
  <symbol id="cpu" viewBox="0 0 24 24">
    <path stroke="none" d="M0 0h24v24H0z" fill="none"/><path d="M5 5m0 1a1 1 0 0 1 1 -1h12a1 1 0 0 1 1 1v12a1 1 0 0 1 -1 1h-12a1 1 0 0 1 -1 -1z" /><path d="M9 9h6v6h-6z" /><path d="M3 10h2" /><path d="M3 14h2" /><path d="M10 3v2" /><path d="M14 3v2" /><path d="M21 10h-2" /><path d="M21 14h-2" /><path d="M14 21v-2" /><path d="M10 21v-2" />
  </symbol>
  
  <symbol id="x-circle" viewBox="0 0 24 24">
    <path stroke="none" d="M0 0h24v24H0z" fill="none"/><path d="M12 12m-9 0a9 9 0 1 0 18 0a9 9 0 1 0 -18 0" /><path d="M10 10l4 4m0 -4l-4 4" />
  </symbol>

  <symbol id="thumbs-up" viewBox="0 0 24 24">
    <path stroke="none" d="M0 0h24v24H0z" fill="none"/><path d="M7 11v8a1 1 0 0 1 -1 1h-2a1 1 0 0 1 -1 -1v-7a1 1 0 0 1 1 -1h3a4 4 0 0 0 4 -4v-1a2 2 0 0 1 4 0v5h3a2 2 0 0 1 2 2l-1 5a2 3 0 0 1 -2 2h-7a3 3 0 0 1 -3 -3" />
  </symbol>

  <symbol id="thumbs-down" viewBox="0 0 24 24">
    <path stroke="none" d="M0 0h24v24H0z" fill="none"/><path d="M7 13v-8a1 1 0 0 0 -1 -1h-2a1 1 0 0 0 -1 1v7a1 1 0 0 0 1 1h3a4 4 0 0 1 4 4v1a2 2 0 0 0 4 0v-5h3a2 2 0 0 0 2 -2l-1 -5a2 3 0 0 0 -2 -2h-7a3 3 0 0 0 -3 3" />
  </symbol>

  <symbol id="arrow-left" viewBox="0 0 24 24">
    <path stroke="none" d="M0 0h24v24H0z" fill="none"/><path d="M5 12l14 0" /><path d="M5 12l6 6" /><path d="M5 12l6 -6" />
  </symbol>
  
  <symbol id="play" viewBox="0 0 24 24">
    <path stroke="none" d="M0 0h24v24H0z" fill="none"/><path d="M7 4v16l13 -8z" />
  </symbol>
</svg>