<svg xmlns="http://www.w3.org/2000/svg" style="display: none;">
  <defs>
    <linearGradient id="brand-gradient-icon" x1="0%" y1="0%" x2="100%" y2="100%">
      <stop offset="0%" stop-color="#00b8d4" />
      <stop offset="100%" stop-color="#9c27b0" />
    </linearGradient>
  </defs>
  <symbol id="home" viewBox="0 0 24 24">
    <path d="M3 9l9-7 9 7v11a2 2 0 0 1-2 2H5a2 2 0 0 1-2-2z"></path>
    <polyline points="9 22 9 12 15 12 15 22"></polyline>
  </symbol>
  <symbol id="grid" viewBox="0 0 24 24">
    <rect x="3" y="3" width="7" height="7"></rect>
    <rect x="14" y="3" width="7" height="7"></rect>
    <rect x="14" y="14" width="7" height="7"></rect>
    <rect x="3" y="14" width="7" height="7"></rect>
  </symbol>
  <symbol id="search" viewBox="0 0 24 24">
    <circle cx="11" cy="11" r="8"></circle>
    <line x1="21" y1="21" x2="16.65" y2="16.65"></line>
  </symbol>
  <symbol id="sliders" viewBox="0 0 24 24">
      <line x1="4" y1="21" x2="4" y2="14"></line>
      <line x1="4" y1="10" x2="4" y2="3"></line>
      <line x1="12" y1="21" x2="12" y2="12"></line>
      <line x1="12" y1="8" x2="12" y2="3"></line>
      <line x1="20" y1="21" x2="20" y2="16"></line>
      <line x1="20" y1="12" x2="20" y2="3"></line>
      <line x1="1" y1="14" x2="7" y2="14"></line>
      <line x1="9" y1="8" x2="15" y2="8"></line>
      <line x1="17" y1="16" x2="23" y2="16"></line>
  </symbol>
  <symbol id="book" viewBox="0 0 24 24">
    <path d="M4 19.5A2.5 2.5 0 0 1 6.5 17H20"></path>
    <path d="M6.5 2H20v20H6.5A2.5 2.5 0 0 1 4 19.5v-15A2.5 2.5 0 0 1 6.5 2z"></path>
  </symbol>
  <symbol id="mic" viewBox="0 0 24 24">
      <path d="M12 1a3 3 0 0 0-3 3v8a3 3 0 0 0 6 0V4a3 3 0 0 0-3-3z"></path>
      <path d="M19 10v2a7 7 0 0 1-14 0v-2"></path>
      <line x1="12" y1="19" x2="12" y2="23"></line>
      <line x1="8" y1="23" x2="16" y2="23"></line>
  </symbol>
  <symbol id="git-branch" viewBox="0 0 24 24">
      <line x1="6" y1="3" x2="6" y2="15"></line>
      <circle cx="18" cy="6" r="3"></circle>
      <circle cx="6" cy="18" r="3"></circle>
      <path d="M18 9a9 9 0 0 1-9 9"></path>
  </symbol>
  <symbol id="settings" viewBox="0 0 24 24">
    <circle cx="12" cy="12" r="3"></circle>
    <path d="M19.4 15a1.65 1.65 0 0 0 .33 1.82l.06.06a2 2 0 0 1 0 2.83 2 2 0 0 1-2.83 0l-.06-.06a1.65 1.65 0 0 0-1.82-.33 1.65 1.65 0 0 0-1 1.51V21a2 2 0 0 1-2 2 2 2 0 0 1-2-2v-.09A1.65 1.65 0 0 0 9 19.4a1.65 1.65 0 0 0-1.82.33l-.06.06a2 2 0 0 1-2.83 0 2 2 0 0 1 0-2.83l.06-.06a1.65 1.65 0 0 0 .33-1.82 1.65 1.65 0 0 0-1.51-1H3a2 2 0 0 1-2-2 2 2 0 0 1 2-2h.09A1.65 1.65 0 0 0 4.6 9a1.65 1.65 0 0 0-.33-1.82l-.06-.06a2 2 0 0 1 0-2.83 2 2 0 0 1 2.83 0l.06.06a1.65 1.65 0 0 0 1.82.33H9a1.65 1.65 0 0 0 1-1.51V3a2 2 0 0 1 2-2 2 2 0 0 1 2 2v.09a1.65 1.65 0 0 0 1 1.51 1.65 1.65 0 0 0 1.82-.33l.06-.06a2 2 0 0 1 2.83 0 2 2 0 0 1 0 2.83l-.06.06a1.65 1.65 0 0 0-.33 1.82V9a1.65 1.65 0 0 0 1.51 1H21a2 2 0 0 1 2 2 2 2 0 0 1-2 2h-.09a1.65 1.65 0 0 0-1.51 1z"></path>
  </symbol>
  <symbol id="archive" viewBox="0 0 24 24">
    <polyline points="21 8 21 21 3 21 3 8"></polyline>
    <rect x="1" y="3" width="22" height="5"></rect>
    <line x1="10" y1="12" x2="14" y2="12"></line>
  </symbol>
  <symbol id="book-open" viewBox="0 0 24 24">
    <path d="M2 3h6a4 4 0 0 1 4 4v14a3 3 0 0 0-3-3H2z"></path>
    <path d="M22 3h-6a4 4 0 0 0-4 4v14a3 3 0 0 1 3-3h7z"></path>
  </symbol>
  <symbol id="cpu" viewBox="0 0 24 24">
      <rect x="4" y="4" width="16" height="16" rx="2" ry="2"></rect>
      <rect x="9" y="9" width="6" height="6"></rect>
      <line x1="9" y1="1" x2="9" y2="4"></line>
      <line x1="15" y1="1" x2="15" y2="4"></line>
      <line x1="9" y1="20" x2="9" y2="23"></line>
      <line x1="15" y1="20" x2="15" y2="23"></line>
      <line x1="20" y1="9" x2="23" y2="9"></line>
      <line x1="20" y1="14" x2="23" y2="14"></line>
      <line x1="1" y1="9" x2="4" y2="9"></line>
      <line x1="1" y1="14" x2="4" y2="14"></line>
  </symbol>
  <symbol id="feather" viewBox="0 0 24 24">
    <path d="M20.24 12.24a6 6 0 0 0-8.49-8.49L5 10.5V19h8.5z"></path>
    <line x1="16" y1="8" x2="2" y2="22"></line>
    <line x1="17.5" y1="15" x2="9" y2="15"></line>
  </symbol>
  <symbol id="trending-up" viewBox="0 0 24 24">
    <polyline points="23 6 13.5 15.5 8.5 10.5 1 18"></polyline>
    <polyline points="17 6 23 6 23 12"></polyline>
  </symbol>
  <symbol id="trash-2" viewBox="0 0 24 24">
    <polyline points="3 6 5 6 21 6"></polyline>
    <path d="M19 6v14a2 2 0 0 1-2 2H7a2 2 0 0 1-2-2V6m3 0V4a2 2 0 0 1 2-2h4a2 2 0 0 1 2 2v2"></path>
    <line x1="10" y1="11" x2="10" y2="17"></line>
    <line x1="14" y1="11" x2="14" y2="17"></line>
  </symbol>
   <symbol id="user" viewBox="0 0 24 24">
    <path d="M20 21v-2a4 4 0 0 0-4-4H8a4 4 0 0 0-4 4v2"></path>
    <circle cx="12" cy="7" r="4"></circle>
  </symbol>
  <symbol id="award" viewBox="0 0 24 24">
    <circle cx="12" cy="8" r="7"></circle>
    <polyline points="8.21 13.89 7 23 12 20 17 23 15.79 13.88"></polyline>
  </symbol>
  <symbol id="star" viewBox="0 0 24 24">
    <polygon points="12 2 15.09 8.26 22 9.27 17 14.14 18.18 21.02 12 17.77 5.82 21.02 7 14.14 2 9.27 8.91 8.26 12 2"></polygon>
  </symbol>
  <symbol id="zap" viewBox="0 0 24 24">
      <polygon points="13 2 3 14 12 14 11 22 21 10 12 10 13 2"></polygon>
  </symbol>
  <symbol id="target" viewBox="0 0 24 24">
      <circle cx="12" cy="12" r="10"></circle>
      <circle cx="12" cy="12" r="6"></circle>
      <circle cx="12" cy="12" r="2"></circle>
  </symbol>
  <symbol id="check-circle" viewBox="0 0 24 24">
      <path d="M22 11.08V12a10 10 0 1 1-5.93-9.14"></path>
      <polyline points="22 4 12 14.01 9 11.01"></polyline>
  </symbol>
  <symbol id="x-circle" viewBox="0 0 24 24">
      <circle cx="12" cy="12" r="10"></circle>
      <line x1="15" y1="9" x2="9" y2="15"></line>
      <line x1="9" y1="9" x2="15" y2="15"></line>
  </symbol>
  <symbol id="lock" viewBox="0 0 24 24">
      <rect x="3" y="11" width="18" height="11" rx="2" ry="2"></rect>
      <path d="M7 11V7a5 5 0 0 1 10 0v4"></path>
  </symbol>
</svg>